<svg width="10" height="5" viewBox="0 0 10 5" fill="none" xmlns="http://www.w3.org/2000/svg">
<path d="M5.00002 4.66668C4.84425 4.66698 4.6933 4.61273 4.57335 4.51334L0.573354 1.18001C0.43721 1.06685 0.351594 0.904244 0.335341 0.72796C0.319087 0.551676 0.373529 0.376155 0.486688 0.240011C0.599847 0.103866 0.762454 0.0182502 0.938739 0.00199704C1.11502 -0.0142561 1.29054 0.0401848 1.42669 0.153344L5.00002 3.14001L8.57336 0.260011C8.64155 0.204634 8.72001 0.163279 8.80424 0.138325C8.88846 0.11337 8.97679 0.105308 9.06414 0.114601C9.1515 0.123893 9.23615 0.150358 9.31324 0.192474C9.39033 0.23459 9.45834 0.291526 9.51336 0.360011C9.57441 0.428558 9.62065 0.508976 9.64918 0.596225C9.6777 0.683474 9.68791 0.775675 9.67914 0.86705C9.67038 0.958426 9.64285 1.04701 9.59826 1.12725C9.55367 1.20748 9.49299 1.27765 9.42002 1.33334L5.42002 4.55334C5.29663 4.63702 5.14876 4.67692 5.00002 4.66668Z" fill="black"/>
</svg>
