<svg width="73" height="62" viewBox="0 0 73 62" fill="none" xmlns="http://www.w3.org/2000/svg">
<path d="M22.4869 47.8652C18.8649 47.8652 15.9194 50.8107 15.9194 54.4327C15.9194 58.0546 18.8649 61.0001 22.4869 61.0001C26.1088 61.0001 29.0543 58.0546 29.0543 54.4327C29.0543 50.8107 26.1087 47.8652 22.4869 47.8652ZM22.4869 58.8109C20.0722 58.8109 18.1086 56.8472 18.1086 54.4327C18.1086 52.018 20.0723 50.0544 22.4869 50.0544C24.9014 50.0544 26.8651 52.0181 26.8651 54.4327C26.8651 56.8472 24.9014 58.8109 22.4869 58.8109Z" fill="#D82222"/>
<path d="M59.7022 47.8652C56.0802 47.8652 53.1348 50.8107 53.1348 54.4327C53.1348 58.0546 56.0802 61.0001 59.7022 61.0001C63.3242 61.0001 66.2696 58.0546 66.2696 54.4327C66.2696 50.8107 63.3242 47.8652 59.7022 47.8652ZM59.7022 58.8109C57.2875 58.8109 55.324 56.8472 55.324 54.4327C55.324 52.018 57.2876 50.0544 59.7022 50.0544C62.1169 50.0544 64.0804 52.0181 64.0804 54.4327C64.0804 56.8472 62.1169 58.8109 59.7022 58.8109Z" fill="#D82222"/>
<path d="M72.6633 41.8001L62.8122 26.4761C62.6108 26.163 62.2638 25.9736 61.8916 25.9736H49.8514C49.2461 25.9736 48.7568 26.464 48.7568 27.0682V54.4324C48.7568 55.0377 49.2461 55.527 49.8514 55.527H54.2296V53.3378H50.9459V28.1628H61.294L70.6482 42.7141V53.338H65.1753V55.5271H71.7427C72.348 55.5271 72.8373 55.0379 72.8373 54.4326V42.3922C72.8374 42.1831 72.7772 41.9762 72.6633 41.8001Z" fill="#D82222"/>
<path d="M55.3241 40.2032V32.5412H64.0807V30.3521H54.2295C53.6242 30.3521 53.135 30.8424 53.135 31.4466V41.2977C53.135 41.9031 53.6242 42.3923 54.2295 42.3923H70.6481V40.2031H55.3241V40.2032Z" fill="#D82222"/>
<path d="M49.8512 18.3118H8.25737C7.65322 18.3118 7.16284 18.8021 7.16284 19.4063V54.4327C7.16284 55.038 7.65322 55.5272 8.25737 55.5272H17.014V53.338H9.35203V20.5008H48.7566V53.338H27.9597V55.5272H49.8512C50.4565 55.5272 50.9457 55.038 50.9457 54.4327V19.4063C50.9457 18.8021 50.4565 18.3118 49.8512 18.3118Z" fill="#D82222"/>
<path d="M14.8248 48.9595H8.25732V51.1487H14.8248V48.9595Z" fill="#D82222"/>
<path d="M48.7567 48.9595H30.1489V51.1487H48.7567V48.9595Z" fill="#D82222"/>
<path d="M71.7425 48.9595H67.3643V51.1487H71.7425V48.9595Z" fill="#D82222"/>
<path d="M49.8513 22.6897H11.5413V24.8789H49.8513V22.6897Z" fill="#D82222"/>
<path d="M23.5815 53.3381H21.3923V55.5273H23.5815V53.3381Z" fill="#D82222"/>
<path d="M60.7969 53.3381H58.6077V55.5273H60.7969V53.3381Z" fill="#D82222"/>
<path d="M26.8653 13.9333H11.5413V16.1225H26.8653V13.9333Z" fill="#D82222"/>
<path d="M13.8667 13.9333H12V15.8001H13.8667V13.9333Z" fill="#D82222"/>
<circle cx="12" cy="12" r="12" fill="#D82222"/>
<path d="M13.6953 17H12.2422V7.36719L9.32812 8.4375V7.125L13.4688 5.57031H13.6953V17Z" fill="white"/>
</svg>
