<svg width="68" height="62" viewBox="0 0 68 62" fill="none" xmlns="http://www.w3.org/2000/svg">
<path d="M35.6265 43.8438C36.2305 43.8438 36.7202 43.3541 36.7202 42.75C36.7202 42.1459 36.2305 41.6562 35.6265 41.6562C35.0224 41.6562 34.5327 42.1459 34.5327 42.75C34.5327 43.3541 35.0224 43.8438 35.6265 43.8438Z" fill="#D82222"/>
<path d="M16.3765 20.875V25.25C16.3765 25.8541 16.8661 26.3438 17.4702 26.3438H49.0796C49.6836 26.3438 50.1733 25.8541 50.1733 25.25V20.875C50.1733 20.2709 49.6836 19.7812 49.0796 19.7812H17.4702C16.8661 19.7812 16.3765 20.2709 16.3765 20.875ZM27.9702 21.9688H47.9858V24.1562H27.9702V21.9688ZM18.564 21.9688H25.7827V24.1562H18.564V21.9688Z" fill="#D82222"/>
<path d="M17.4702 30.7188H49.0796C49.6836 30.7188 50.1733 30.2291 50.1733 29.625C50.1733 29.0209 49.6836 28.5312 49.0796 28.5312H17.4702C16.8661 28.5312 16.3765 29.0209 16.3765 29.625C16.3765 30.2291 16.8661 30.7188 17.4702 30.7188Z" fill="#D82222"/>
<path d="M17.4702 35.0938H49.0796C49.6836 35.0938 50.1733 34.6041 50.1733 34C50.1733 33.3959 49.6836 32.9062 49.0796 32.9062H17.4702C16.8661 32.9062 16.3765 33.3959 16.3765 34C16.3765 34.6041 16.8661 35.0938 17.4702 35.0938Z" fill="#D82222"/>
<path d="M17.4702 39.4688H35.6265C36.2305 39.4688 36.7202 38.9791 36.7202 38.375C36.7202 37.7709 36.2305 37.2812 35.6265 37.2812H17.4702C16.8661 37.2812 16.3765 37.7709 16.3765 38.375C16.3765 38.9791 16.8661 39.4688 17.4702 39.4688Z" fill="#D82222"/>
<path d="M17.4702 43.8438H31.2515C31.8555 43.8438 32.3452 43.3541 32.3452 42.75C32.3452 42.1459 31.8555 41.6562 31.2515 41.6562H17.4702C16.8661 41.6562 16.3765 42.1459 16.3765 42.75C16.3765 43.3541 16.8661 43.8438 17.4702 43.8438Z" fill="#D82222"/>
<path d="M26.8765 52.5938H32.4552C32.9634 55.087 35.1729 56.9688 37.814 56.9688C40.8294 56.9688 43.2827 54.5155 43.2827 51.5C43.2827 48.4845 40.8294 46.0312 37.814 46.0312C35.173 46.0312 32.9634 47.913 32.4552 50.4062H26.8765C26.2724 50.4062 25.7827 50.8959 25.7827 51.5C25.7827 52.1041 26.2724 52.5938 26.8765 52.5938ZM37.814 50.4062H34.7208C35.1723 49.1332 36.388 48.2188 37.814 48.2188C39.6232 48.2188 41.0952 49.6907 41.0952 51.5C41.0952 53.3093 39.6232 54.7812 37.814 54.7812C36.3882 54.7812 35.1723 53.8668 34.7208 52.5938H37.814C38.4179 52.5938 38.9077 52.1041 38.9077 51.5C38.9077 50.8959 38.418 50.4062 37.814 50.4062Z" fill="#D82222"/>
<path d="M49.0796 14.75C49.6836 14.75 50.1733 14.2603 50.1733 13.6562C50.1733 13.0522 49.6836 12.5625 49.0796 12.5625H46.8921C46.2881 12.5625 45.7983 13.0522 45.7983 13.6562C45.7983 14.2603 46.2881 14.75 46.8921 14.75H49.0796Z" fill="#D82222"/>
<path d="M42.5171 14.75C43.1211 14.75 43.6108 14.2603 43.6108 13.6562C43.6108 13.0522 43.1211 12.5625 42.5171 12.5625H40.3296C39.7256 12.5625 39.2358 13.0522 39.2358 13.6562C39.2358 14.2603 39.7256 14.75 40.3296 14.75H42.5171Z" fill="#D82222"/>
<path d="M35.9546 14.75C36.5587 14.75 37.0483 14.2603 37.0483 13.6562C37.0483 13.0522 36.5587 12.5625 35.9546 12.5625H33.7671C33.163 12.5625 32.6733 13.0522 32.6733 13.6562C32.6733 14.2603 33.163 14.75 33.7671 14.75H35.9546Z" fill="#D82222"/>
<path d="M33.439 62C34.043 62 34.5327 61.5103 34.5327 60.9062C34.5327 60.3022 34.043 59.8125 33.439 59.8125C32.8349 59.8125 32.3452 60.3022 32.3452 60.9062C32.3452 61.5103 32.8349 62 33.439 62Z" fill="#D82222"/>
<path d="M13.0952 62H28.5171C29.1212 62 29.6108 61.5103 29.6108 60.9062C29.6108 60.3022 29.1212 59.8125 28.5171 59.8125H14.189V16.9375H21.8452C22.4493 16.9375 22.939 16.4478 22.939 15.8438V8.1875H52.3608V39.1026C51.8647 39.6896 51.4014 40.205 51.0005 40.6162L48.6818 38.2975C46.5452 36.1594 43.0847 36.1584 40.9473 38.2972L39.4008 39.8438C38.9737 40.2709 38.9737 40.9635 39.4008 41.3906L52.3607 54.3505V59.8125H38.3607C37.7567 59.8125 37.267 60.3022 37.267 60.9062C37.267 61.5103 37.7567 62 38.3607 62H53.4545C54.0584 62 54.5482 61.5103 54.5482 60.9062V56.538L54.8686 56.8584C55.2957 57.2852 55.9884 57.2855 56.4155 56.8584L57.962 55.3118C60.099 53.1749 60.0994 49.715 57.962 47.5777L55.6436 45.2592C57.7184 43.2376 62.282 39.8797 64.6799 38.8354C68.0455 37.3703 69.26 32.7941 66.3884 29.9225C63.5384 27.0711 58.9826 28.2297 57.4901 31.605C56.9303 32.87 55.7706 34.6487 54.5483 36.3155V7.09375C54.5483 6.48967 54.0586 6 53.4546 6H21.8452C21.5469 6 21.2666 6.12578 21.0718 6.32036L12.3218 15.0704C12.124 15.2678 12.0015 15.5469 12.0015 15.8438V60.9062C12.0015 61.5103 12.4911 62 13.0952 62ZM56.4152 49.1245C57.6974 50.4066 57.6976 52.4826 56.4152 53.765L55.6421 54.5382L41.7211 40.6172L42.4944 39.8438C43.7765 38.561 45.8519 38.5604 47.1348 39.844L56.4152 49.1245ZM54.3119 40.18C56.2073 37.894 58.5438 34.6296 59.4906 32.49C60.3407 30.5675 63.0426 29.6695 64.8415 31.4692C66.6412 33.2688 65.7269 35.9939 63.8066 36.8298C61.085 38.0152 56.3481 41.511 54.0967 43.7123L52.5474 42.163C53.066 41.6324 53.6718 40.9522 54.3119 40.18ZM20.7515 9.73428V14.75H15.7357L20.7515 9.73428Z" fill="#D82222"/>
<circle cx="12" cy="12" r="12" fill="#D82222"/>
<path d="M11.0469 10.6094H12.1328C12.8151 10.599 13.3516 10.4193 13.7422 10.0703C14.1328 9.72135 14.3281 9.25 14.3281 8.65625C14.3281 7.32292 13.6641 6.65625 12.3359 6.65625C11.7109 6.65625 11.2109 6.83594 10.8359 7.19531C10.4661 7.54948 10.2812 8.02083 10.2812 8.60938H8.83594C8.83594 7.70833 9.16406 6.96094 9.82031 6.36719C10.4818 5.76823 11.3203 5.46875 12.3359 5.46875C13.4089 5.46875 14.25 5.7526 14.8594 6.32031C15.4688 6.88802 15.7734 7.67708 15.7734 8.6875C15.7734 9.18229 15.612 9.66146 15.2891 10.125C14.9714 10.5885 14.5365 10.9349 13.9844 11.1641C14.6094 11.362 15.0911 11.6901 15.4297 12.1484C15.7734 12.6068 15.9453 13.1667 15.9453 13.8281C15.9453 14.849 15.612 15.6589 14.9453 16.2578C14.2786 16.8568 13.4115 17.1562 12.3438 17.1562C11.276 17.1562 10.4062 16.8672 9.73438 16.2891C9.06771 15.7109 8.73438 14.9479 8.73438 14H10.1875C10.1875 14.599 10.3828 15.0781 10.7734 15.4375C11.1641 15.7969 11.6875 15.9766 12.3438 15.9766C13.0417 15.9766 13.5755 15.7943 13.9453 15.4297C14.3151 15.0651 14.5 14.5417 14.5 13.8594C14.5 13.1979 14.2969 12.6901 13.8906 12.3359C13.4844 11.9818 12.8984 11.7995 12.1328 11.7891H11.0469V10.6094Z" fill="white"/>
</svg>
