<svg width="68" height="62" viewBox="0 0 68 62" fill="none" xmlns="http://www.w3.org/2000/svg">
<path d="M21.3047 55.758C21.1013 55.5544 20.8191 55.4375 20.5315 55.4375C20.2438 55.4375 19.9617 55.5544 19.7582 55.758C19.5548 55.9615 19.4377 56.2436 19.4377 56.5312C19.4377 56.8189 19.5547 57.1011 19.7582 57.3044C19.9617 57.5079 20.2438 57.625 20.5315 57.625C20.8191 57.625 21.1013 57.508 21.3047 57.3044C21.5081 57.1011 21.6252 56.8189 21.6252 56.5312C21.6252 56.2436 21.5082 55.9614 21.3047 55.758Z" fill="#D82222"/>
<path d="M63.3542 26.0087C63.1508 25.8052 62.8697 25.6882 62.5809 25.6882C62.2933 25.6882 62.0111 25.8052 61.8076 26.0087C61.6043 26.2121 61.4872 26.4943 61.4872 26.782C61.4872 27.0696 61.6042 27.3518 61.8076 27.5552C62.0111 27.7586 62.2933 27.8757 62.5809 27.8757C62.8697 27.8757 63.1508 27.7587 63.3542 27.5552C63.5586 27.3518 63.6757 27.0696 63.6757 26.782C63.6757 26.4943 63.5586 26.2121 63.3542 26.0087Z" fill="#D82222"/>
<path d="M67.6791 6.32036C67.4739 6.11528 67.1956 6 66.9055 6L39.9999 6.00142C39.3959 6.00142 38.9062 6.4912 38.9062 7.09517V10.223L28.5387 13.001C27.9552 13.1574 27.6089 13.7571 27.7653 14.3405L33.1386 34.3935L28.4902 39.0419C27.8986 38.178 26.9053 37.6099 25.7817 37.6099H15.282C13.4727 37.6099 12.0009 39.0819 12.0009 40.8911V58.7188C12.0009 60.528 13.4727 62 15.282 62H25.7818C27.3188 62 28.6119 60.9373 28.9662 59.5084L30.2667 60.6425C31.2707 61.518 32.5569 62.0001 33.889 62.0001H66.9057C67.5097 62.0001 67.9994 61.5103 67.9994 60.9064V7.09375C67.9992 6.80369 67.8842 6.52544 67.6791 6.32036ZM26.8753 58.7189C26.8753 59.3218 26.3847 59.8126 25.7816 59.8126H15.2819C14.6788 59.8126 14.1881 59.322 14.1881 58.7189V40.8912C14.1881 40.2881 14.6788 39.7974 15.2819 39.7974H19.438V52.3969C19.438 53.0008 19.9278 53.4906 20.5318 53.4906C21.1357 53.4906 21.6255 53.0008 21.6255 52.3969V39.7974H25.7817C26.3848 39.7974 26.8754 40.2881 26.8754 40.8912V58.7189H26.8753ZM30.1613 14.8308L38.9062 12.4876V16.5405L38.1732 16.7369C37.8929 16.812 37.6541 16.9952 37.5091 17.2465C37.364 17.4977 37.3247 17.7962 37.3998 18.0764C37.8201 19.645 36.886 21.263 35.3174 21.6833C35.0369 21.7585 34.7977 21.9421 34.6527 22.1938C34.5078 22.4455 34.4688 22.7445 34.5446 23.025L38.8079 38.812H36.6127L35.4815 34.3862C35.4455 34.2453 35.3825 34.1155 35.2982 34.0026L30.1613 14.8308ZM38.9062 21.5563V30.7855L36.9113 23.3988C37.7447 22.9685 38.4266 22.3248 38.9062 21.5563ZM54.6195 59.8125H33.8888C33.0854 59.8125 32.3096 59.5218 31.7041 58.9938L29.0628 56.6903V41.563L33.8379 36.7879L34.7039 40.1763C34.8277 40.6605 35.2638 40.9991 35.7636 40.9991L57.2671 41.0004C58.1115 41.0004 58.7984 41.6873 58.7984 42.5317C58.7984 43.3761 58.1115 44.0629 57.2671 44.0629H46.2487C45.6447 44.0629 45.1549 44.5527 45.1549 45.1567C45.1549 45.7607 45.6447 46.2504 46.2487 46.2504H60.6906C61.5349 46.2504 62.2218 46.9373 62.2218 47.7817C62.2218 48.6261 61.5349 49.3129 60.6906 49.3129H46.2487C45.6447 49.3129 45.1549 49.8027 45.1549 50.4067C45.1549 51.0107 45.6447 51.5004 46.2487 51.5004H58.3503C59.1946 51.5004 59.8815 52.1873 59.8815 53.0317C59.8815 53.8761 59.1946 54.5629 58.3503 54.5629H46.2487C45.6447 54.5629 45.1549 55.0527 45.1549 55.6567C45.1549 56.2607 45.6447 56.7504 46.2487 56.7504H54.6195C55.4639 56.7504 56.1507 57.4373 56.1507 58.2817C56.1506 59.1256 55.4637 59.8125 54.6195 59.8125ZM65.8119 59.8125H65.8118H58.0069C58.219 59.3451 58.3381 58.827 58.3381 58.2812C58.3381 57.7355 58.219 57.2174 58.0069 56.75H58.3503C60.4007 56.75 62.0689 55.0818 62.0689 53.0314C62.0689 52.4333 61.9262 51.8682 61.6742 51.367C63.2487 50.9345 64.4091 49.4913 64.4091 47.7815C64.4091 46.952 64.1359 46.1851 63.6751 45.5661V31.7039C63.6751 31.0999 63.1853 30.6101 62.5813 30.6101C61.9774 30.6101 61.4876 31.0999 61.4876 31.7039V44.1499C61.2305 44.0936 60.964 44.0629 60.6903 44.0629H60.6545C60.8665 43.5956 60.9857 43.0775 60.9857 42.5317C60.9857 40.4811 59.3175 38.813 57.267 38.813H55.5088C57.3757 38.0124 58.6869 36.1568 58.6869 34C58.6869 31.1137 56.3389 28.7655 53.4526 28.7655C50.5664 28.7655 48.2182 31.1137 48.2182 34C48.2182 36.1568 49.5295 38.0124 51.3963 38.813H45.4175V18.0163C47.3714 17.5905 48.9132 16.0488 49.3389 14.0948H57.5662C57.9918 16.0488 59.5336 17.5905 61.4875 18.0163V21.4167C61.4875 22.0207 61.9772 22.5105 62.5812 22.5105C63.1852 22.5105 63.675 22.0207 63.675 21.4167V17.0398C63.675 16.4358 63.1852 15.946 62.5812 15.946C60.9573 15.946 59.6364 14.6249 59.6364 13.0011C59.6364 12.3971 59.1466 11.9073 58.5427 11.9073H48.3625C47.7585 11.9073 47.2687 12.3971 47.2687 13.0011C47.2687 14.625 45.9477 15.946 44.3239 15.946C43.7199 15.946 43.2302 16.4358 43.2302 17.0398V38.8129H41.0938V8.1887L65.8119 8.1875V59.8125ZM53.4528 37.047C51.7727 37.047 50.4059 35.6801 50.4059 34.0001C50.4059 32.3201 51.7728 30.9531 53.4528 30.9531C55.1328 30.9531 56.4996 32.32 56.4996 34C56.4996 35.68 55.1329 37.047 53.4528 37.047Z" fill="#D82222"/>
<circle cx="12" cy="11.793" r="11.5862" fill="#D82222"/>
<path d="M14.0469 13.1797H15.625V14.3594H14.0469V17H12.5938V14.3594H7.41406V13.5078L12.5078 5.625H14.0469V13.1797ZM9.05469 13.1797H12.5938V7.60156L12.4219 7.91406L9.05469 13.1797Z" fill="white"/>
</svg>
