<svg width="68" height="62" viewBox="0 0 68 62" fill="none" xmlns="http://www.w3.org/2000/svg">
<path d="M37.428 48.6916C37.0012 49.118 37.0012 49.8106 37.428 50.2378C37.8557 50.6646 38.5478 50.6646 38.9742 50.2378C39.4019 49.8106 39.4019 49.118 38.9742 48.6916C38.5478 48.2639 37.8557 48.2639 37.428 48.6916Z" fill="#D82222"/>
<path d="M65.4763 46.7919L57.1723 39.7308C57.1339 39.6984 57.0933 39.6685 57.051 39.6415C54.8724 38.2547 52.0753 38.5619 50.2488 40.3879L45.7213 44.915C45.4077 45.2291 44.9398 45.3218 44.5297 45.1526C39.4172 43.0377 35.2174 39.8539 32.0468 35.6904C29.629 32.5155 28.7575 29.9926 28.6425 29.6372C28.6289 29.5611 28.6071 29.4855 28.5763 29.4116C28.4067 29.0014 28.4994 28.5344 28.8139 28.2208L33.341 23.6925C35.1674 21.866 35.4742 19.0688 34.0874 16.8903C34.0762 16.8728 34.0647 16.8557 34.0527 16.8386L28.0559 8.50514C26.1692 5.57808 22.0595 5.13588 19.593 7.60194L18.6864 8.50856C18.686 8.50941 18.6851 8.51027 18.6843 8.51069L15.4475 11.7475C11.5877 15.6077 10.9563 21.408 13.6218 28.5225C15.905 34.6167 20.4757 41.2864 26.4918 47.3025C32.6501 53.4608 39.5001 58.1161 45.7798 60.4108C51.9954 62.6816 58.607 62.9615 63.2866 58.2814L66.3393 55.2292C68.7947 52.7734 68.3662 48.6906 65.4763 46.7919ZM55.8171 41.4492L64.1138 48.5043C64.1518 48.5368 64.1924 48.5667 64.2347 48.5936C66.0069 49.722 66.2752 52.2 64.7922 53.6826L64.5658 53.9094L50.415 43.3146L51.7954 41.9346C52.8742 40.8554 54.5183 40.6601 55.8171 41.4492ZM26.2286 9.70698C26.2397 9.7245 26.2512 9.74202 26.2632 9.75868L32.2575 18.0891C33.0718 19.3927 32.8834 21.0568 31.7943 22.1458L30.4566 23.484L20.8829 9.40535L21.1397 9.14857C22.6286 7.65962 25.1045 7.94118 26.2286 9.70698ZM46.53 58.3562C40.5435 56.1687 33.9763 51.6937 28.0384 45.7559C22.2381 39.956 17.8456 33.5631 15.6696 27.7551C14.0363 23.3955 12.9404 17.3479 16.9941 13.2946L19.3085 10.9797L28.8822 25.0584L27.2677 26.6738C26.3491 27.5906 26.0603 28.9476 26.5187 30.1558C26.8639 31.5726 28.4524 34.5133 30.055 36.6803C32.4134 39.8693 36.694 44.278 43.6936 47.1739C44.9236 47.6827 46.3262 47.4033 47.2679 46.4621L48.8526 44.877L63.0034 55.4719L61.74 56.7348C57.3945 61.0808 51.0704 60.0152 46.53 58.3562Z" fill="#D82222"/>
<path d="M35.3754 46.0805C34.2201 45.0675 32.2219 43.3252 31.1696 42.2425C28.589 39.5906 25.8816 36.376 24.2717 34.0535C23.9278 33.557 23.2463 33.4331 22.7498 33.7775C22.2534 34.1214 22.1299 34.8029 22.4738 35.2993C24.5041 38.2285 27.4871 41.5944 29.6016 43.7674C30.7124 44.9107 32.7277 46.6684 33.933 47.7249C34.3863 48.1223 35.0772 48.0787 35.4766 47.6237C35.8748 47.1699 35.8295 46.4787 35.3754 46.0805Z" fill="#D82222"/>
<circle cx="12" cy="12" r="12" fill="#D82222"/>
<path d="M16.3984 17H8.94531V15.9609L12.8828 11.5859C13.4661 10.9245 13.8672 10.388 14.0859 9.97656C14.3099 9.5599 14.4219 9.13021 14.4219 8.6875C14.4219 8.09375 14.2422 7.60677 13.8828 7.22656C13.5234 6.84635 13.0443 6.65625 12.4453 6.65625C11.7266 6.65625 11.1667 6.86198 10.7656 7.27344C10.3698 7.67969 10.1719 8.2474 10.1719 8.97656H8.72656C8.72656 7.92969 9.0625 7.08333 9.73438 6.4375C10.4115 5.79167 11.3151 5.46875 12.4453 5.46875C13.5026 5.46875 14.3385 5.7474 14.9531 6.30469C15.5677 6.85677 15.875 7.59375 15.875 8.51562C15.875 9.63542 15.1615 10.9688 13.7344 12.5156L10.6875 15.8203H16.3984V17Z" fill="white"/>
</svg>
